<?xml version="1.0" encoding="UTF-8"?>
<svg
  id="a"
  xmlns="http://www.w3.org/2000/svg"
  viewBox="0 0 512 512">
  <defs>
    <style>.b{fill:#00b8d9;}</style>
  </defs>
  <path class="b" d="M102.33,15.32C53.19,15.32,13.35,55.15,13.35,104.29s39.84,88.98,88.98,88.98,88.97-39.84,88.97-88.98S151.47,15.32,102.33,15.32Zm11.99,148.62c0,6.62-5.37,12-11.99,12s-12-5.38-12-12V89.04c0-6.62,5.38-11.99,12-11.99s11.99,5.37,11.99,11.99v74.9Zm-11.99-94.85c-10.07,0-18.23-8.16-18.23-18.22s8.16-18.23,18.23-18.23,18.22,8.16,18.22,18.23-8.16,18.22-18.22,18.22Z"/>
</svg>
