<?xml version="1.0" encoding="UTF-8"?><svg id="a" xmlns="http://www.w3.org/2000/svg" viewBox="0 0 411.47 133.48"><defs><style>.b{fill:#00b8d9;}</style></defs><path class="b" d="M385.65,44.87c-4.88,0-8.85,3.97-8.85,8.85v55.27c0,4.88,3.97,8.85,8.85,8.85s8.85-3.97,8.85-8.85V53.72c0-4.88-3.97-8.85-8.85-8.85Z"/><path class="b" d="M29.51,44.87c-4.88,0-8.85,3.97-8.85,8.85v55.27c0,4.88,3.97,8.85,8.85,8.85s8.85-3.97,8.85-8.85V53.72c0-4.88-3.97-8.85-8.85-8.85Z"/><path class="b" d="M164.55,44.87h0c-4.95,0-9.55,.7-13.79,2.11-4.15,1.32-7.8,3.31-10.93,5.96-3.05,2.57-5.48,5.76-7.28,9.55l-.03,.07v.02c-1.69,3.71-2.54,7.91-2.54,12.58v33.82c0,4.88,3.97,8.85,8.85,8.85s8.85-3.97,8.85-8.85v-29.84c0-6.08,1.42-10.51,4.14-13.47,2.8-3.06,6.96-4.62,12.73-4.62s9.78,1.56,12.59,4.62l.02,.02c2.79,2.97,4.25,7.39,4.25,13.45v29.84c0,4.88,3.97,8.85,8.85,8.85s8.85-3.97,8.85-8.85v-33.82c0-4.7-.85-8.94-2.56-12.66h0c-1.71-3.79-4.14-6.99-7.27-9.55-3.04-2.66-6.7-4.66-10.94-5.98-4.22-1.41-8.81-2.11-13.74-2.11h-.04Z"/><path class="b" d="M86.36,44.87c-4.95,0-9.55,.7-13.79,2.11-4.15,1.32-7.8,3.31-10.92,5.96-3.05,2.57-5.48,5.76-7.28,9.55l-.03,.07v.02c-1.69,3.71-2.54,7.91-2.54,12.58v33.82c0,4.88,3.97,8.85,8.85,8.85s8.85-3.97,8.85-8.85v-29.83c0-6.08,1.42-10.51,4.13-13.47,2.8-3.05,6.95-4.62,12.72-4.62s9.78,1.56,12.59,4.62l.02,.02c2.79,2.97,4.25,7.39,4.25,13.45v29.84c0,4.88,3.97,8.85,8.85,8.85s8.85-3.97,8.85-8.85v-33.82c0-4.7-.85-8.94-2.57-12.66h0c-1.71-3.8-4.14-7-7.28-9.57-3.04-2.65-6.69-4.64-10.92-5.96-4.22-1.41-8.81-2.1-13.74-2.11h-.05Z"/><path class="b" d="M246.94,60.64h.01c2.98,0,5.71,.57,8.23,1.7l.07,.03c2.51,1.05,4.61,2.51,6.34,4.4l.04,.04c1.81,1.9,3.19,4.19,4.16,6.9v.02h.01v.02c1.06,2.62,1.59,5.47,1.59,8.56s-.53,5.9-1.56,8.51h0l-.02,.05h0v.06h-.01c-.95,2.47-2.31,4.69-4.1,6.67h-.18v.19c-1.72,1.87-3.81,3.36-6.31,4.48-2.52,1.04-5.26,1.57-8.25,1.57s-5.87-.53-8.39-1.57c-2.44-1.14-4.57-2.66-6.4-4.57-1.74-2.01-3.14-4.28-4.2-6.82-.96-2.63-1.45-5.48-1.45-8.57s.49-5.95,1.45-8.58c1.06-2.73,2.45-5.03,4.18-6.94h0c1.82-1.91,3.93-3.37,6.36-4.42h-.01l.05-.02h.02l.04-.03h0c2.51-1.11,5.28-1.68,8.35-1.68h0Zm0-15.78h0c-5.41,0-10.51,.94-15.29,2.8h-.29v.13c-4.6,1.87-8.64,4.47-12.07,7.8h0v.02c-3.5,3.3-6.23,7.27-8.2,11.87h0c-1.98,4.53-2.97,9.49-2.97,14.84s.98,10.16,2.94,14.76v.02l.03,.06c1.97,4.51,4.71,8.48,8.2,11.87l.1,.1h.03c3.44,3.23,7.47,5.82,12.07,7.76h0l.07,.05h.02c4.8,1.89,9.92,2.83,15.36,2.83s10.47-.93,15.16-2.8h.01l.06-.02c4.78-1.97,8.93-4.61,12.41-7.9h0v-.02h.02c3.47-3.38,6.19-7.33,8.16-11.81h.01l.02-.07c1.98-4.62,2.97-9.57,2.97-14.83s-.99-10.31-2.97-14.85h0c-1.97-4.59-4.71-8.56-8.19-11.86-3.49-3.39-7.65-6.03-12.43-7.91-4.71-1.88-9.79-2.83-15.22-2.83h0Z"/><path class="b" d="M329.84,60.92h0c2.99,0,5.67,.56,8.09,1.69h.03v.02h.02c2.53,1.05,4.64,2.52,6.38,4.42h0v.02l.03,.02c1.82,1.82,3.2,4.02,4.16,6.64,.97,2.63,1.45,5.49,1.45,8.59s-.49,5.95-1.45,8.58h0s0,.06-.01,.1v-.1c-.95,2.53-2.33,4.75-4.17,6.66-1.73,1.82-3.85,3.29-6.38,4.43h-.02c-2.43,1.05-5.12,1.58-8.12,1.58s-5.74-.53-8.27-1.58h-.02c-2.43-1.06-4.55-2.48-6.37-4.3h0c-1.73-1.82-3.12-4.04-4.18-6.67h0c-.96-2.64-1.44-5.53-1.44-8.72,0-2.99,.48-5.78,1.44-8.4v-.03c1.07-2.64,2.47-4.91,4.21-6.83,1.73-1.9,3.79-3.36,6.21-4.4h.02s.01-.02,.02-.02l.04-.02h0c2.51-1.12,5.29-1.69,8.37-1.69h0Zm-29.03-45.06c-4.88,0-8.84,3.97-8.84,8.85v54.3c0,6.78,.92,12.72,2.81,17.81,1.88,5.06,4.52,9.33,7.93,12.74,3.4,3.4,7.43,5.96,12.05,7.66l.05,.02h.02c4.69,1.68,9.78,2.52,15.27,2.52s10.6-.94,15.23-2.82c4.69-1.88,8.75-4.47,12.15-7.77,3.4-3.31,6.04-7.28,7.93-11.89,1.88-4.62,2.82-9.61,2.82-14.96s-.93-10.37-2.79-14.88h0l-.02-.07c-1.79-4.6-4.34-8.58-7.65-11.88h0c-3.21-3.4-7.04-6-11.46-7.79h-.03c-4.34-1.9-9.11-2.83-14.26-2.83s-10.15,1.08-14.34,3.27h0c-3.28,1.64-5.85,3.68-8.02,5.94V24.71c0-4.88-3.96-8.85-8.84-8.85h-.01Z"/><path class="b" d="M42.95,25.55c0,7.43-6.02,13.44-13.45,13.44s-13.45-6.02-13.45-13.44,6.02-13.45,13.45-13.45,13.45,6.02,13.45,13.45Z"/><path class="b" d="M399.1,25.89c0,7.43-6.02,13.45-13.45,13.45s-13.45-6.02-13.45-13.45,6.02-13.45,13.45-13.45,13.45,6.02,13.45,13.45Z"/><path class="b" d="M310.99,91.13s0,.03,0,.03c0,0,0,.04,0,.04v-.06Z"/></svg>